<svg xmlns="http://www.w3.org/2000/svg" viewBox="0 0 226.8 226.8"><path d="M113.8 0C51.5 0 1 50.5 1 112.8s50.5 112.8 112.8 112.8 112.8-50.5 112.8-112.8S176.2 0 113.8 0zm78.1 96.3c-.4 2-2.4 3.7-4.4 3.7h-24.8l-5 25.8H184c1.2 0 2 1 1.8 2.2l-3.9 19.9c-.4 2-2.4 3.7-4.4 3.7h-24.8l-3.8 19.6c-.4 2-2.4 3.7-4.4 3.7h-25c-1.2 0-2-1-1.8-2.2l9.1-46.9H95.9l-8.8 45.5c-.4 2-2.4 3.7-4.4 3.7h-25c-1.2 0-2-1-1.8-2.2l4.1-21.1H33.7c-1.2 0-2-1-1.8-2.2l3.9-19.9c.4-2 2.4-3.7 4.4-3.7H65l5-25.8H43.9c-1.2 0-2-1-1.8-2.2L46 77.8c.4-2 2.4-3.7 4.4-3.7h24.7l3.8-19.6c.4-2 2.4-3.7 4.4-3.7h25c1.2 0 2 1 1.8 2.2L101 99.9h30.9l8.8-45.5c.4-2 2.4-3.7 4.4-3.7h25c1.2 0 2 1 1.8 2.2L167.8 74H194c1.2 0 2 1 1.8 2.2l-3.9 20.1z"/></svg>